<?xml version="1.0" encoding="iso-8859-1"?>
<!-- Generator: Adobe Illustrator 19.0.0, SVG Export Plug-In . SVG Version: 6.00 Build 0)  -->
<svg version="1.1" id="Capa_1" xmlns="http://www.w3.org/2000/svg" xmlns:xlink="http://www.w3.org/1999/xlink" x="0px" y="0px"
	 viewBox="0 0 461.852 461.852" style="enable-background:new 0 0 461.852 461.852;" xml:space="preserve">
<g>
	<g>
		<path d="M167.971,361.541c-27.69,0-50.155,22.465-50.155,50.155s22.465,50.155,50.155,50.155s50.155-22.465,50.155-50.155
			S195.661,361.541,167.971,361.541z"/>
	</g>
</g>
<g>
	<g>
		<path d="M356.575,361.541c-27.69,0-50.155,22.465-50.155,50.155s22.465,50.155,50.155,50.155c27.69,0,50.155-22.465,50.155-50.155
			C406.73,384.007,384.265,361.541,356.575,361.541z"/>
	</g>
</g>
<g>
	<g>
		<path d="M449.048,88.823H114.681l-2.612-15.673C104.754,30.309,67.661-0.516,24.297,0.007h-1.045
			c-5.747,0-10.449,4.702-10.449,10.449s4.702,10.449,10.449,10.449h1.045c32.914-0.522,61.649,22.988,67.396,55.38l33.959,201.665
			c5.224,29.78,31.869,51.722,62.171,51.2h208.98c5.747,0,10.449-4.702,10.449-10.449c0-5.747-4.702-10.449-10.449-10.449h-208.98
			c-20.375,0.523-38.139-14.628-41.273-34.482l-5.747-33.437h235.625c18.808,0,35.004-12.539,40.229-30.302l16.718-58.514H125.652
			l-3.657-20.898h317.126L449.048,88.823z"/>
	</g>
</g>
<g>
</g>
<g>
</g>
<g>
</g>
<g>
</g>
<g>
</g>
<g>
</g>
<g>
</g>
<g>
</g>
<g>
</g>
<g>
</g>
<g>
</g>
<g>
</g>
<g>
</g>
<g>
</g>
<g>
</g>
</svg>
